# AST/ASF file generated using VICON BodyLanguage
# -----------------------------------------------
:version 1.10
:name VICON
:units
  mass 1.0
  length 0.45
  angle deg
:documentation
   .ast/.asf automatically generated from VICON data using
   VICON BodyBuilder and BodyLanguage model FoxedUp or BRILLIANT.MOD
:root
   order TX TY TZ RX RY RZ
   axis XYZ
   position 0 0 0  
   orientation 0 0 0 
:bonedata
  begin
     id 1 
     name lhipjoint
     direction 0.646657 -0.683706 0.338203 
     length 2.4948 
     axis 0 0 0  XYZ
  end
  begin
     id 2 
     name lfemur
     direction 0.34202 -0.939693 0  
     length 6.79491  
     axis 0 0 20  XYZ
    dof rx ry rz
    limits (-160.0 20.0)
           (-70.0 70.0)
           (-60.0 70.0)
  end
  begin
     id 3 
     name ltibia
     direction 0.34202 -0.939693 0   
     length 7.56807   
     axis 0 0 20   XYZ
    dof rx
    limits (-10.0 170.0)
  end
  begin
     id 4 
     name lfoot
     direction 0.0679796 -0.186772 0.980048   
     length 2.53018   
     axis -90 7.62852e-016 20   XYZ
    dof rx rz
    limits (-45.0 90.0)
           (-70.0 20.0)
  end
  begin
     id 5 
     name ltoes
     direction 1.53625e-011 -4.21881e-011 1   
     length 1.26912   
     axis -90 7.62852e-016 20   XYZ
    dof rx
    limits (-90.0 20.0)
  end
  begin
     id 6 
     name rhipjoint
     direction -0.618868 -0.704065 0.348274   
     length 2.42265  
     axis 0 0 0  XYZ 
  end
  begin
     id 7 
     name rfemur
     direction -0.34202 -0.939693 0   
     length 6.73814   
     axis 0 0 -20   XYZ
    dof rx ry rz
    limits (-160.0 20.0)
           (-70.0 70.0)
           (-70.0 60.0)
  end
  begin
     id 8 
     name rtibia
     direction -0.34202 -0.939693 0   
     length 7.66799   
     axis 0 0 -20   XYZ
    dof rx
    limits (-10.0 170.0)
 end
 begin
     id 9 
     name rfoot
     direction -0.0727352 -0.199838 0.977125   
     length 2.57224  
     axis -90 -7.62852e-016 -20   XYZ
    dof rx rz
    limits (-45.0 90.0)
           (-20.0 70.0)
  end
  begin
     id 10 
     name rtoes
     direction -1.53501e-011 -4.21858e-011 1   
     length 1.28858   
     axis -90 -7.62852e-016 -20   XYZ
    dof rx
    limits (-90.0 20.0)
  end
  begin
     id 11 
     name lowerback
     direction -0.0172471 0.995767 -0.0902851   
     length 2.20206   
     axis 0 0 0   XYZ
    dof rx ry rz
    limits (-20.0 45.0)
           (-30.0 30.0)
           (-30.0 30.0)
  end
  begin
     id 12 
     name upperback
     direction -0.000110737 0.999714 0.0239043   
     length 2.19523   
     axis 0 0 0   XYZ
    dof rx ry rz
    limits (-20.0 45.0)
           (-30.0 30.0)
           (-30.0 30.0)
  end
  begin
     id 13 
     name thorax
     direction 0.00704869 0.997783 0.0661741   
     length 2.21977   
     axis 0 0 0   XYZ
    dof rx ry rz
    limits (-20.0 45.0)
           (-30.0 30.0)
           (-30.0 30.0)
  end
  begin
     id 14 
     name lowerneck
     direction -0.00407501 0.995527 0.0943846   
     length 1.83142   
     axis 0 0 0   XYZ
    dof rx ry rz
    limits (-20.0 45.0)
           (-30.0 30.0)
           (-30.0 30.0)
  end
  begin
     id 15 
     name upperneck
     direction 0.0640586 0.986486 -0.150807   
     length 1.84616   
     axis 0 0 0   XYZ
    dof rx ry rz
    limits (-20.0 45.0)
           (-30.0 30.0)
           (-30.0 30.0)
  end
  begin
     id 16
     name head
     direction 0.0188017 0.99791 -0.0618239  
     length 1.85932  
     axis 0 0 0   XYZ
    dof rx ry rz
    limits (-20.0 45.0)
           (-30.0 30.0)
           (-30.0 30.0)
  end
  begin
     id 17 
     name lclavicle
     direction 0.976074 0.206905 0.066852  
     length 3.81043  
     axis 0 0 0   XYZ
    dof ry rz
    limits (-20.0 10.0)
           (0.0 20.0)
  end
  begin
     id 18 
     name lhumerus
     direction 1 -4.48971e-011 1.86916e-027   
     length 5.37587   
     axis 180 -30 -90   XYZ
    dof rx ry rz
    limits (-60.0 90.0)
           (-90.0 90.0)
           (-90.0 90.0)
  end
  begin
     id 19
     name lradius
     direction 1 -4.48968e-011 1.69187e-027   
     length 3.35977   
     axis 180 -30 -90   XYZ
    dof rx
    limits (-10.0 170.0)
  end
  begin
     id 20
     name lwrist
     direction 1 -4.48968e-011 5.8978e-027   
     length 1.67988   
     axis -3.27506e-015 90 90   XYZ
    dof ry
    limits (-180.0 0.0)
 end
  begin
     id 21 
     name lhand
     direction 1 -4.49028e-011 1.18071e-026   
     length 0.561859   
     axis -7.52654e-015 90 90   XYZ
    dof rx rz
    limits (-90.0 90.0)
           (-45.0 45.0)
  end
  begin
     id 22 
     name lfingers
     direction 1 -4.48927e-011 2.35758e-026   
     length 0.452985   
     axis -1.50534e-014 90 90   XYZ
    dof rx
    limits (0.0 90.0)
  end
  begin
     id 23
     name lthumb
     direction 0.707107 -6.34898e-011 0.707107   
     length 0.650399   
     axis -90 45 5.69224e-014   XYZ
    dof rx rz
    limits (-45.0 45.0)
           (-45.0 45.0)
  end
  begin
     id 24 
     name rclavicle
     direction -0.988403 0.151789 0.00439714   
     length 3.6942  
     axis 0 0 0   XYZ 
    dof ry rz
    limits (-10.0 20.0)
           (-20.0 0.0)
  end
  begin
     id 25 
     name rhumerus
     direction -1 -4.48978e-011 1.62495e-027  
     length 5.22819   
     axis 180 30 90   XYZ
    dof rx ry rz
    limits (-90.0 60.0)
           (-90.0 90.0)
           (-90.0 90.0)
  end
  begin
     id 26 
     name rradius
     direction -1 -4.48961e-011 3.47796e-027   
     length 3.40764   
     axis 180 30 90   XYZ
    dof rx
    limits (-10.0 170.0)
  end
  begin
     id 27 
     name rwrist
     direction -1 -4.48949e-011 5.89602e-027   
     length 1.70382   
     axis -3.27506e-015 -90 -90   XYZ
    dof ry
    limits (-180.0 0.0)
  end
  begin
     id 28
     name rhand
     direction -1 -4.48977e-011 1.17973e-026   
     length 0.583255   
     axis -7.52654e-015 -90 -90   XYZ
    dof rx rz
    limits (-90.0 90.0)
           (-45.0 45.0)
  end
  begin
     id 29
     name rfingers
     direction -1 -4.49099e-011 2.36408e-026   
     length 0.470235   
     axis -1.50534e-014 -90 -90   XYZ
    dof rx
    limits (0.0 90.0)
  end
  begin
     id 30
     name rthumb
     direction -0.707107 -6.35011e-011 0.707107   
     length 0.675167   
     axis -90 -45 -5.69224e-014   XYZ
    dof rx rz
    limits (-45.0 45.0)
           (-45.0 45.0)
  end
:hierarchy
  begin
    root lhipjoint rhipjoint lowerback
    lhipjoint lfemur
    lfemur ltibia
    ltibia lfoot
    lfoot ltoes
    rhipjoint rfemur
    rfemur rtibia
    rtibia rfoot
    rfoot rtoes
    lowerback upperback
    upperback thorax
    thorax lowerneck lclavicle rclavicle
    lowerneck upperneck
    upperneck head
    lclavicle lhumerus
    lhumerus lradius
    lradius lwrist
    lwrist lhand lthumb
    lhand lfingers
    rclavicle rhumerus
    rhumerus rradius
    rradius rwrist
    rwrist rhand rthumb
    rhand rfingers
  end

#!OML:ASF G:\JayActor3\Patient Classification 1\Patient 1\Session 2\male.ASF
:FULLY-SPECIFIED
:DEGREES
221
root 0.342057 15.9851 -2.09395 -152.02 -62.4313 154.194
lowerback 13.1756 3.73466 3.5269
upperback 4.84145 5.14966 1.91035
thorax -2.13328 2.45267 -0.733367
lowerneck -7.02586 0.395281 1.10457
upperneck 0.653578 0.386866 0.662762
head 1.38389 0.199377 0.0324523
rclavicle -4.13472e-014 5.08889e-014
rhumerus -34.0525 17.4962 -90.3996
rradius 52.7333
rwrist -20.8722
rhand -29.2191 11.108
rfingers 7.12502
rthumb -2.56335 -18.8563
lclavicle -4.13472e-014 5.08889e-014
lhumerus -44.142 1.80188 89.2854
lradius 40.7731
lwrist 19.5341
lhand -32.6526 25.3225
lfingers 7.12502
lthumb -5.87884 55.2209
rfemur -11.1799 -5.12667 6.65913
rtibia 72.4882
rfoot -7.79766 -16.9528
rtoes 12.5465
lfemur -30.7417 15.4584 -32.7765
ltibia 40.288
lfoot -11.4667 -4.59473
ltoes -13.7977
222
root 0.116488 15.9547 -2.19034 -150.964 -62.988 152.442
lowerback 13.2725 3.30726 2.09588
upperback 4.85708 4.40912 1.55446
thorax -2.28059 2.07969 -0.210033
lowerneck -6.96758 0.554934 1.09017
upperneck 0.485931 0.587262 1.0859
head 1.31893 0.304769 0.172296
rclavicle -2.3059e-014 4.45278e-014
rhumerus -34.8505 16.4764 -89.9239
rradius 51.7231
rwrist -21.0118
rhand -29.3217 11.0834
rfingers 7.12502
rthumb -2.6624 -18.8797
lclavicle -2.3059e-014 4.45278e-014
lhumerus -41.7343 0.28296 89.5972
lradius 42.0605
lwrist 19.5363
lhand -32.9704 25.4994
lfingers 7.12502
lthumb -6.18559 55.3891
rfemur -12.7788 -5.17882 6.20284
rtibia 75.6392
rfoot -6.38512 -14.9
rtoes 11.1036
lfemur -29.356 14.7231 -32.8918
ltibia 40.7855
lfoot -12.4828 -4.43289
ltoes -14.9044
223
root -0.107312 15.9283 -2.28679 -149.953 -63.5034 150.754
lowerback 13.3919 2.88349 0.761394
upperback 4.89577 3.67472 1.20134
thorax -2.37996 1.709 0.271105
lowerneck -6.91946 0.711091 1.05352
upperneck 0.394694 0.786538 1.46391
head 1.27984 0.40905 0.301571
rclavicle -5.48646e-014 -1.59028e-014
rhumerus -35.564 15.5651 -89.4158
rradius 50.6586
rwrist -21.1378
rhand -29.3108 11.0247
rfingers 7.12502
rthumb -2.65189 -18.9385
lclavicle -5.48646e-014 -1.59028e-014
lhumerus -39.3166 -1.39635 89.7598
lradius 43.3507
lwrist 19.5197
lhand -33.1255 25.5852
lfingers 7.12502
lthumb -6.33534 55.4705
rfemur -14.5148 -5.2574 5.83841
rtibia 78.5538
rfoot -5.87875 -12.8377
rtoes 9.40679
lfemur -27.916 14.2023 -32.9924
ltibia 41.1531
lfoot -13.3767 -4.42686
ltoes -15.8867
224
root -0.332979 15.9081 -2.3811 -149.155 -63.968 149.341
lowerback 13.4828 2.46548 -0.3777
upperback 4.9504 2.96427 0.860172
thorax -2.41135 1.34972 0.660381
lowerneck -6.86369 0.866301 0.999547
upperneck 0.36702 0.987755 1.79167
head 1.25931 0.513954 0.418222
rclavicle -3.97569e-015 -6.04305e-014
rhumerus -36.1871 14.8005 -88.9
rradius 49.5308
rwrist -21.2157
rhand -29.2034 10.9583
rfingers 7.12502
rthumb -2.54818 -19.0063
lclavicle -3.97569e-015 -6.04305e-014
lhumerus -36.9223 -3.18974 89.7495
lradius 44.6725
lwrist 19.4918
lhand -33.128 25.5233
lfingers 7.12502
lthumb -6.33776 55.4085
rfemur -16.3972 -5.33265 5.64202
rtibia 81.1567
rfoot -6.11554 -11.0866
rtoes 7.74491
lfemur -26.4157 13.8756 -33.0013
ltibia 41.358
lfoot -14.225 -4.50236
ltoes -16.7479
225
root -0.562963 15.8957 -2.47161 -148.682 -64.3816 148.349
lowerback 13.4995 2.05172 -1.26268
upperback 5.01506 2.28878 0.537985
thorax -2.36317 1.00753 0.92737
lowerneck -6.78914 1.02376 0.932079
upperneck 0.381869 1.19505 2.06559
head 1.24862 0.621426 0.520629
rclavicle 3.33958e-014 4.77083e-015
rhumerus -36.7135 14.2069 -88.3938
rradius 48.3438
rwrist -21.2203
rhand -29.0211 10.9044
rfingers 7.12502
rthumb -2.3721 -19.0622
lclavicle 3.33958e-014 4.77083e-015
lhumerus -34.5824 -5.04172 89.5502
lradius 46.0738
lwrist 19.4719
lhand -32.9934 25.2784
lfingers 7.12502
lthumb -6.20783 55.1674
rfemur -18.4315 -5.37712 5.66332
rtibia 83.3886
rfoot -6.90388 -9.82914
rtoes 6.30032
lfemur -24.8692 13.6976 -32.873
ltibia 41.3938
lfoot -15.0691 -4.58604
ltoes -17.5211
226
root -0.798331 15.8911 -2.55759 -148.559 -64.7412 147.819
lowerback 13.4132 1.64137 -1.88988
upperback 5.08457 1.65321 0.237123
thorax -2.23536 0.685147 1.06789
lowerneck -6.69485 1.18576 0.853924
upperneck 0.419404 1.41136 2.28296
head 1.24127 0.732708 0.607448
rclavicle -7.95139e-015 2.8625e-014
rhumerus -37.1456 13.7926 -87.9065
rradius 47.119
rwrist -21.1418
rhand -28.7837 10.873
rfingers 7.12502
rthumb -2.14277 -19.096
lclavicle -7.95139e-015 2.8625e-014
lhumerus -32.3263 -6.8952 89.1574
lradius 47.6121
lwrist 19.4855
lhand -32.7473 24.8467
lfingers 7.12502
lthumb -5.97027 54.7425
rfemur -20.6138 -5.37033 5.90617
rtibia 85.2076
rfoot -8.08402 -9.10349
rtoes 5.17412
lfemur -23.2963 13.6082 -32.6057
ltibia 41.2684
lfoot -15.9238 -4.61667
ltoes -18.2522
227
root -1.03901 15.8935 -2.63925 -148.728 -65.037 147.692
lowerback 13.2209 1.23678 -2.30656
upperback 5.15366 1.05779 -0.0452443
thorax -2.04152 0.382945 1.10199
lowerneck -6.59117 1.35279 0.766265
upperneck 0.469389 1.63708 2.44335
head 1.23584 0.847916 0.678318
rclavicle 6.08281e-014 1.90833e-014
rhumerus -37.4998 13.553 -87.4416
rradius 45.8949
rwrist -20.9911
rhand -28.5083 10.8558
rfingers 7.12502
rthumb -1.87679 -19.1157
lclavicle 6.08281e-014 1.90833e-014
lhumerus -30.1838 -8.69839 88.5801
lradius 49.342
lwrist 19.5536
lhand -32.4149 24.2671
lfingers 7.12502
lthumb -5.64928 54.1718
rfemur -22.9227 -5.30183 6.32549
rtibia 86.5864
rfoot -9.5395 -8.84108
rtoes 4.40232
lfemur -21.7078 13.5465 -32.2392
ltibia 40.991
lfoot -16.7841 -4.55027
ltoes -18.9639
228
root -1.28424 15.9016 -2.71753 -149.081 -65.2546 147.838
lowerback 12.9463 0.843607 -2.58938
upperback 5.21484 0.500617 -0.315155
thorax -1.80895 0.100184 1.06425
lowerneck -6.49435 1.52319 0.669385
upperneck 0.533362 1.8695 2.54942
head 1.23573 0.965871 0.734099
rclavicle -1.59028e-014 -2.22639e-014
rhumerus -37.811 13.4757 -86.9994
rradius 44.7222
rwrist -20.7989
rhand -28.207 10.8327
rfingers 7.12502
rthumb -1.58587 -19.1412
lclavicle -1.59028e-014 -2.22639e-014
lhumerus -28.1846 -10.412 87.8397
lradius 51.3013
lwrist 19.6857
lhand -32.0106 23.6145
lfingers 7.12502
lthumb -5.25895 53.5293
rfemur -25.3188 -5.17033 6.84501
rtibia 87.507
rfoot -11.1779 -8.91648
rtoes 3.9718
lfemur -20.1012 13.4661 -31.8376
ltibia 40.5643
lfoot -17.6272 -4.36041
ltoes -19.6572
229
root -1.53295 15.9139 -2.79368 -149.493 -65.3826 148.106
lowerback 12.6275 0.468276 -2.81965
upperback 5.25746 -0.0212655 -0.579316
thorax -1.57264 -0.164464 0.992757
lowerneck -6.42055 1.69388 0.563471
upperneck 0.620514 2.10386 2.60726
head 1.24682 1.08453 0.776844
rclavicle -9.93923e-015 -6.36111e-015
rhumerus -38.1276 13.5452 -86.5798
rradius 43.6566
rwrist -20.6081
rhand -27.8872 10.7807
rfingers 7.12502
rthumb -1.27694 -19.1952
lclavicle -9.93923e-015 -6.36111e-015
lhumerus -26.354 -12.0167 86.9673
lradius 53.499
lwrist 19.8825
lhand -31.5486 22.958
lfingers 7.12502
lthumb -4.81286 52.8833
rfemur -27.7522 -4.9831 7.38217
rtibia 87.9571
rfoot -12.9165 -9.1962
rtoes 3.83205
lfemur -18.4677 13.3394 -31.4692
ltibia 39.9836
lfoot -18.4181 -4.03792
ltoes -20.314
